Harry.Brown.2009.720p.BRRip.x264.aac.mp4-anoXmous

Format                           : MPEG-4
Format profile                   : Base Media
Codec ID                         : isom
File size                        : 700 MiB
Duration                         : 1h 42mn
Overall bit rate mode            : Variable
Overall bit rate                 : 952 Kbps

Video
ID                               : 1
Format                           : AVC
Format/Info                      : Advanced Video Codec
Format profile                   : High@L4.1
Format settings, CABAC           : Yes
Format settings, ReFrames        : 4 frames
Codec ID                         : avc1
Codec ID/Info                    : Advanced Video Coding
Duration                         : 1h 42mn
Bit rate                         : 878 Kbps
Maximum bit rate                 : 5 689 Kbps
Width                            : 1 280 pixels
Height                           : 544 pixels
Display aspect ratio             : 2.35:1
Original display aspect ratio    : 2.35:1
Frame rate mode                  : Constant
Frame rate                       : 23.976 fps
Color space                      : YUV
Chroma subsampling               : 4:2:0
Bit depth                        : 8 bits
Scan type                        : Progressive
Bits/(Pixel*Frame)               : 0.053
Stream size                      : 645 MiB (92%)
Writing library                  : x264 core 119 r2106 07efeb4

Audio
ID                               : 2
Format                           : AAC
Format profile                   : LC
Codec ID                         : 40
Duration                         : 1h 42mn
Bit rate mode                    : Variable
Bit rate                         : 72.0 Kbps
Maximum bit rate                 : 96.0 Kbps
Channel(s)                       : 2 channels
Channel positions                : Front: L R
Sampling rate                    : 48.0 KHz 
Compression mode                 : Lossy
Stream size                      : 52.2 MiB (7%)
Language                         : English
:06:02

                             SUB:

Harry.Brown.2009.720p.BRRip.x264.aac.mp4-anoXmous_swe.srt
 
http://www.imdb.com/title/tt1289406/	 